<svg xmlns="http://www.w3.org/2000/svg" version="1.1" xmlns:xlink="http://www.w3.org/1999/xlink" xmlns:svgjs="http://svgjs.dev/svgjs" width="2000" height="1250" viewBox="0 0 2000 1250"><g transform="matrix(1,0,0,1,0,0)"><svg viewBox="0 0 512 320" data-background-color="#ffffff" preserveAspectRatio="xMidYMid meet" height="1250" width="2000" xmlns="http://www.w3.org/2000/svg" xmlns:xlink="http://www.w3.org/1999/xlink"><g id="tight-bounds" transform="matrix(1,0,0,1,0,0)"><svg viewBox="0 0 512 320" height="320" width="512"><g><svg></svg></g><g><svg viewBox="0 0 512 320" height="320" width="512"><g><path xmlns="http://www.w3.org/2000/svg" d="M96 160c0-88.366 71.634-160 160-160 88.366 0 160 71.634 160 160 0 88.366-71.634 160-160 160-88.366 0-160-71.634-160-160z" fill="#8d021f" fill-rule="nonzero" stroke="none" stroke-width="1" stroke-linecap="butt" stroke-linejoin="miter" stroke-miterlimit="10" stroke-dasharray="" stroke-dashoffset="0" font-family="none" font-weight="none" font-size="none" text-anchor="none" style="mix-blend-mode: normal" data-fill-palette-color="tertiary"></path></g><g transform="matrix(1,0,0,1,153.6,108.44802591954142)"><svg viewBox="0 0 204.8 103.10394816091716" height="103.10394816091716" width="204.8"><g><svg viewBox="0 0 204.8 103.10394816091716" height="103.10394816091716" width="204.8"><g><svg viewBox="0 0 204.8 103.10394816091716" height="103.10394816091716" width="204.8"><g><svg viewBox="0 0 204.8 103.10394816091716" height="103.10394816091716" width="204.8"><g id="textblocktransform"><svg viewBox="0 0 204.8 103.10394816091716" height="103.10394816091716" width="204.8" id="textblock"><g><svg viewBox="0 0 204.8 103.10394816091716" height="103.10394816091716" width="204.8"><g transform="matrix(1,0,0,1,0,0)"><svg width="204.8" viewBox="0.28166669607162476 -36.11000061035156 73.46833038330078 36.9900016784668" height="103.10394816091716" data-palette-color="#ee3e38"><path d="M1.2 0.37Q0.73 0.32 0.49-0.05 0.24-0.42 0.29-0.85L0.29-0.85Q0.42-1.61 0.76-2.25 1.1-2.88 1.26-3.2 1.42-3.52 1.59-3.91L1.59-3.91 2.51-6.05 12.55-36.11 23.34-15.26 33.81-36.11 46.34 0 33.23 0 27.17-18.65 17.8 0.88 7.93-16.7 4.52-6.03Q3.71-4.25 3.37-3 3.03-1.76 2.81-1.07L2.81-1.07Q2.32 0.46 1.2 0.37L1.2 0.37ZM51.27-1.76L51.27-1.76Q50.41-2.25 49.79-2.78 49.17-3.32 49.17-3.93L49.17-3.93Q49.17-5.1 50.17-5.1L50.17-5.1Q50.83-5.1 51.63-4.37 52.44-3.64 53.44-3.09 54.44-2.54 55.61-2.15L55.61-2.15Q58.03-1.34 60.08-1.34 62.13-1.34 63.24-1.61 64.35-1.88 65.11-2.34L65.11-2.34Q66.72-3.34 66.72-4.91L66.72-4.91Q66.72-6.35 65.33-7.81L65.33-7.81Q64.16-9.06 62.01-10.79L62.01-10.79 57.83-14.06Q51.56-18.9 50.44-22.9L50.44-22.9Q50.05-24.29 50.05-26 50.05-27.71 50.82-29.37 51.58-31.03 53.1-32.28L53.1-32.28Q56.35-34.99 61.94-34.99L61.94-34.99Q64.79-34.99 67.06-34.14 69.33-33.3 70.16-32.64 70.99-31.98 70.99-31.45L70.99-31.45Q70.99-30.32 70.07-30.32L70.07-30.32Q69.53-30.32 68.92-30.86 68.31-31.4 67.56-31.8 66.82-32.2 65.87-32.52L65.87-32.52Q63.82-33.2 61.84-33.2L61.84-33.2Q58.2-33.2 58.2-30.81L58.2-30.81Q58.2-29.81 58.86-28.96L58.86-28.96Q60.03-27.47 63.44-24.69 66.84-21.92 68.91-19.85 70.97-17.77 72.04-16.11L72.04-16.11Q73.75-13.5 73.75-10.68 73.75-7.86 72.76-5.9 71.77-3.93 69.99-2.51L69.99-2.51Q66.23 0.46 60.67 0.46 55.1 0.46 51.27-1.76Z" opacity="1" transform="matrix(1,0,0,1,0,0)" fill="#ee3e38" class="undefined-text-0" data-fill-palette-color="quaternary" id="text-0"></path></svg></g></svg></g></svg></g></svg></g><g></g></svg></g></svg></g></svg></g></svg></g><defs></defs></svg><rect width="512" height="320" fill="none" stroke="none" visibility="hidden"></rect></g></svg></g></svg>